HIERARCHY
ROOT Hips
{
	OFFSET 0.000000 95.729000 0.000000
	CHANNELS 6 Xposition Yposition Zposition Yrotation Xrotation Zrotation
	JOINT RightUpLeg
	{
		OFFSET -9.625000 -1.639000 0.000000
		CHANNELS 3 Yrotation Xrotation Zrotation
		JOINT RightLeg
		{
			OFFSET 0.000000 -43.120000 0.000000
			CHANNELS 3 Yrotation Xrotation Zrotation
			JOINT RightFoot
			{
				OFFSET 0.000000 -43.120000 0.000000
				CHANNELS 3 Yrotation Xrotation Zrotation
				End Site
				{
					OFFSET 0.000000 -7.850000 17.850000
				}
			}
		}
	}
	JOINT LeftUpLeg
	{
		OFFSET 9.625000 -1.639000 0.000000
		CHANNELS 3 Yrotation Xrotation Zrotation
		JOINT LeftLeg
		{
			OFFSET 0.000000 -43.120000 0.000000
			CHANNELS 3 Yrotation Xrotation Zrotation
			JOINT LeftFoot
			{
				OFFSET 0.000000 -43.120000 0.000000
				CHANNELS 3 Yrotation Xrotation Zrotation
				End Site
				{
					OFFSET 0.000000 -7.850000 17.850000
				}
			}
		}
	}
	JOINT Spine
	{
		OFFSET 0.000000 14.755000 0.000000
		CHANNELS 3 Yrotation Xrotation Zrotation
		JOINT Spine1
		{
			OFFSET 0.000000 10.023000 0.000000
			CHANNELS 3 Yrotation Xrotation Zrotation
			JOINT Spine2
			{
				OFFSET 0.000000 10.437000 0.000000
				CHANNELS 3 Yrotation Xrotation Zrotation
				JOINT Spine3
				{
					OFFSET 0.000000 10.023000 0.000000
					CHANNELS 3 Yrotation Xrotation Zrotation
					JOINT Neck
					{
						OFFSET 0.000000 10.713000 0.000000
						CHANNELS 3 Yrotation Xrotation Zrotation
						JOINT Head
						{
							OFFSET 0.000000 9.720000 0.000000
							CHANNELS 3 Yrotation Xrotation Zrotation
							End Site
							{
								OFFSET 0.000000 16.450000 0.000000
							}
						}
					}
					JOINT RightShoulder
					{
						OFFSET -3.275000 7.142000 0.000000
						CHANNELS 3 Yrotation Xrotation Zrotation
						JOINT RightArm
						{
							OFFSET -13.100000 0.000000 0.000000
							CHANNELS 3 Yrotation Xrotation Zrotation
							JOINT RightForeArm
							{
								OFFSET -27.250000 0.000000 0.000000
								CHANNELS 3 Yrotation Xrotation Zrotation
								JOINT RightHand
								{
									OFFSET -26.750000 0.000000 0.000000
									CHANNELS 3 Yrotation Xrotation Zrotation
									End Site
									{
										OFFSET -3.479000 0.532000 0.778000
									}
								}
							}
						}
					}
					JOINT LeftShoulder
					{
						OFFSET 3.275000 7.142000 0.000000
						CHANNELS 3 Yrotation Xrotation Zrotation
						JOINT LeftArm
						{
							OFFSET 13.100000 0.000000 0.000000
							CHANNELS 3 Yrotation Xrotation Zrotation
							JOINT LeftForeArm
							{
								OFFSET 27.250000 0.000000 0.000000
								CHANNELS 3 Yrotation Xrotation Zrotation
								JOINT LeftHand
								{
									OFFSET 26.750000 0.000000 0.000000
									CHANNELS 3 Yrotation Xrotation Zrotation
									End Site
									{
										OFFSET 3.479000 0.532000 0.778000
									}
								}
							}
						}
					}
				}
			}
		}
	}
}
MOTION
Frames: 26
Frame Time: 0.041667
92.51 93.03 -34.08 -67.56 -2.24 -0.24 13.02 8.74 -1.78 0.0 30.78 -0.0 -3.86 -12.14 10.15 9.33 -30.91 -3.28 0.0 27.8 0.0 -17.67 -2.17 -0.74 18.14 5.97 -0.84 4.56 1.41 -0.4 7.34 2.31 -0.58 -0.54 -0.16 0.1 -0.54 -0.16 0.1 -9.87 -2.57 2.07 -1.33 -6.3 10.59 23.34 -31.86 47.46 33.67 -13.82 0.81 2.73 -0.17 -1.83 5.84 -1.64 -5.46 -0.05 31.45 -85.2 10.96 2.13 5.95 -7.99 2.7 -23.52
91.45 92.97 -33.13 -67.5 -2.04 -0.06 12.56 8.75 -2.33 0.0 31.66 -0.0 -3.12 -10.59 10.08 9.63 -30.04 -3.46 0.0 27.18 0.0 -17.22 -1.46 -1.29 18.16 5.69 -0.98 4.57 1.35 -0.43 7.35 2.22 -0.63 -0.55 -0.15 0.1 -0.55 -0.15 0.1 -9.99 -2.46 2.09 -1.75 -6.01 10.79 22.98 -31.51 47.88 33.37 -13.82 1.09 2.73 0.01 -1.84 5.72 -1.64 -5.61 -0.03 31.43 -85.08 11.14 1.79 6.02 -7.88 2.54 -23.48
90.39 92.9 -32.17 -67.47 -1.97 0.21 12.1 8.76 -2.96 0.0 32.74 0.0 -2.37 -8.83 9.96 10.32 -29.51 -3.85 0.0 27.31 0.0 -16.75 -0.42 -1.64 18.21 5.49 -1.15 4.58 1.31 -0.46 7.37 2.16 -0.69 -0.55 -0.15 0.1 -0.56 -0.15 0.1 -10.12 -2.41 2.1 -2.17 -5.75 10.96 22.43 -31.03 48.46 32.96 -13.81 1.45 2.79 0.24 -1.9 5.6 -1.31 -5.54 -0.37 31.01 -85.26 11.29 1.41 6.07 -7.73 2.33 -23.32
89.34 92.79 -31.16 -67.44 -1.99 0.5 11.57 8.72 -3.65 -0.0 33.99 -0.0 -1.61 -6.85 9.78 11.03 -29.17 -4.37 0.0 27.86 0.0 -15.86 0.4 -2.33 18.22 5.42 -1.33 4.58 1.3 -0.5 7.37 2.15 -0.76 -0.56 -0.16 0.11 -0.56 -0.15 0.11 -10.19 -2.54 2.14 -2.51 -5.66 11.12 21.81 -30.43 49.13 32.6 -13.78 1.79 2.75 0.45 -1.95 5.53 -1.1 -5.45 -0.84 30.51 -85.44 11.39 1.02 6.07 -7.57 2.15 -23.06
88.32 92.73 -30.17 -67.38 -1.94 0.75 11.31 8.55 -4.17 0.0 35.17 0.0 -1.12 -4.36 9.62 11.13 -28.53 -4.65 0.0 27.7 0.0 -16.15 0.5 -0.95 18.18 5.44 -1.48 4.57 1.3 -0.54 7.35 2.17 -0.82 -0.56 -0.18 0.11 -0.56 -0.18 0.11 -10.2 -2.93 2.16 -2.73 -5.79 11.14 21.13 -29.71 49.89 33.49 -13.47 1.68 1.42 0.3 -1.93 5.42 -2.04 -5.81 -1.01 30.82 -85.21 11.47 0.61 6.02 -7.4 1.97 -22.68
87.34 92.66 -29.19 -67.32 -1.88 0.92 11.05 8.18 -4.66 -0.0 36.43 0.0 -0.54 -1.44 9.37 11.27 -28.13 -4.96 0.0 28.03 0.0 -16.3 0.67 0.17 18.13 5.44 -1.59 4.56 1.31 -0.57 7.33 2.18 -0.86 -0.55 -0.2 0.1 -0.56 -0.2 0.1 -10.17 -3.37 2.16 -2.93 -5.89 11.16 20.39 -28.9 50.68 34.53 -13.18 1.52 -0.03 0.21 -1.86 5.29 -2.32 -5.86 -1.4 30.49 -85.28 11.39 0.22 5.95 -7.19 1.79 -22.15
86.43 92.69 -28.31 -67.22 -1.85 1.07 10.4 7.73 -5.27 -0.0 37.76 -0.0 0.43 1.68 9.12 11.76 -27.58 -5.22 0.0 28.25 -0.0 -17.32 1.08 1.64 17.98 5.2 -1.89 4.52 1.26 -0.63 7.26 2.12 -0.97 -0.54 -0.21 0.12 -0.55 -0.21 0.12 -10.01 -3.45 2.43 -3.02 -5.65 11.51 19.72 -28.01 51.44 34.32 -13.24 1.72 -0.55 0.53 -1.89 5.22 -2.35 -5.5 -1.75 30.11 -85.39 11.18 -0.21 5.86 -6.94 1.58 -21.43
85.53 92.71 -27.45 -67.1 -1.79 1.24 9.72 7.02 -5.86 -0.0 39.53 -0.0 1.46 4.42 9.0 11.79 -27.43 -5.36 -0.0 29.03 -0.0 -17.69 0.79 2.65 17.82 5.15 -2.09 4.48 1.25 -0.68 7.2 2.11 -1.05 -0.54 -0.23 0.12 -0.54 -0.23 0.12 -9.86 -3.84 2.54 -3.15 -5.71 11.69 19.07 -27.0 52.21 34.08 -13.29 1.96 -0.89 0.9 -1.94 5.06 -2.55 -5.32 -2.03 29.63 -85.51 10.85 -0.67 5.72 -6.65 1.31 -20.52
84.73 91.87 -27.04 -67.02 -1.73 1.4 8.36 5.91 -6.82 -0.0 42.02 0.0 3.29 6.42 8.64 11.96 -26.98 -5.53 0.0 29.28 0.0 -17.68 0.21 3.11 17.66 5.1 -2.29 4.44 1.24 -0.72 7.13 2.11 -1.12 -0.52 -0.25 0.13 -0.53 -0.25 0.13 -9.67 -4.29 2.65 -3.22 -5.75 11.89 18.47 -25.93 52.92 30.33 -13.7 3.56 2.05 1.85 -2.53 4.85 -2.73 -5.13 -2.2 29.09 -85.58 10.39 -1.18 5.51 -6.33 0.93 -19.45
84.03 91.85 -26.56 -67.01 -1.68 1.51 7.97 5.03 -7.27 0.0 44.16 0.0 3.89 7.57 8.51 12.09 -26.47 -5.69 0.0 29.35 0.0 -17.45 -0.23 3.44 17.51 5.03 -2.45 4.4 1.23 -0.76 7.07 2.1 -1.18 -0.51 -0.28 0.13 -0.51 -0.28 0.13 -9.42 -4.77 2.73 -3.25 -5.7 12.1 17.92 -24.85 53.59 29.79 -13.56 3.98 1.9 2.21 -2.67 4.61 -2.89 -4.99 -2.26 28.5 -85.56 9.84 -1.74 5.25 -6.02 0.44 -18.25
83.12 92.07 -25.98 -67.04 -1.58 1.58 7.8 4.09 -7.54 0.0 46.27 0.0 3.91 8.23 8.54 12.38 -25.68 -5.79 0.0 29.18 0.0 -17.59 -0.77 3.71 17.53 4.99 -2.51 4.4 1.22 -0.77 7.08 2.08 -1.2 -0.5 -0.31 0.13 -0.51 -0.31 0.13 -9.37 -5.32 2.72 -3.51 -5.57 12.23 17.48 -23.86 54.18 29.15 -13.38 4.41 1.8 2.59 -2.74 4.11 -3.1 -4.99 -2.27 27.89 -85.48 9.23 -2.34 4.94 -5.76 -0.2 -16.96
82.14 92.32 -25.38 -67.12 -1.43 1.6 7.89 3.14 -7.62 -0.0 48.2 -0.0 3.65 9.19 8.78 12.57 -24.97 -5.82 -0.0 29.09 -0.0 -17.69 -1.25 3.98 17.57 4.9 -2.55 4.42 1.2 -0.78 7.09 2.06 -1.22 -0.5 -0.33 0.12 -0.5 -0.33 0.12 -9.31 -5.86 2.7 -3.81 -5.31 12.34 17.15 -23.0 54.73 28.42 -13.14 4.91 1.73 3.01 -2.78 3.59 -3.33 -5.02 -2.31 27.23 -85.35 8.61 -2.99 4.6 -5.59 -0.92 -15.66
81.24 92.56 -24.77 -67.26 -1.26 1.61 8.15 2.94 -7.6 -0.0 48.89 0.0 3.54 8.55 8.8 12.74 -24.33 -5.84 0.0 29.02 0.0 -17.61 -1.92 4.18 17.65 4.8 -2.6 4.44 1.18 -0.79 7.13 2.02 -1.24 -0.5 -0.36 0.12 -0.5 -0.36 0.12 -9.26 -6.37 2.7 -4.15 -4.94 12.43 16.94 -22.29 55.23 27.29 -12.83 5.57 1.87 3.44 -2.87 3.03 -3.57 -5.07 -2.44 26.52 -85.22 8.0 -3.67 4.26 -5.49 -1.68 -14.42
80.37 92.8 -24.19 -67.43 -1.08 1.62 8.46 2.7 -7.49 -0.0 49.67 -0.0 3.35 7.86 8.76 12.97 -23.67 -5.86 -0.0 28.88 0.0 -17.63 -2.55 4.43 17.75 4.7 -2.65 4.46 1.15 -0.8 7.17 1.99 -1.25 -0.49 -0.39 0.12 -0.49 -0.39 0.12 -9.21 -6.87 2.69 -4.53 -4.51 12.52 16.79 -21.66 55.7 26.28 -12.46 6.21 2.04 4.0 -2.74 2.47 -3.82 -5.13 -2.73 25.73 -85.11 7.43 -4.38 3.92 -5.46 -2.43 -13.26
79.48 93.0 -23.72 -67.43 -1.08 1.62 8.56 1.61 -7.45 0.0 51.8 0.0 2.52 8.59 9.63 12.97 -22.93 -5.78 -0.0 28.78 -0.0 -17.7 -3.14 4.68 17.75 4.7 -2.65 4.46 1.15 -0.8 7.17 1.99 -1.25 -0.49 -0.41 0.12 -0.49 -0.41 0.12 -9.17 -7.32 2.69 -4.94 -4.06 12.59 16.72 -21.08 56.14 25.13 -12.06 6.87 4.24 4.02 -3.25 2.46 -3.79 -5.13 -3.83 24.66 -85.14 6.91 -5.09 3.58 -5.49 -3.11 -12.22
78.64 93.18 -23.27 -67.43 -1.08 1.62 8.47 0.7 -7.46 -0.0 53.42 -0.0 0.94 8.48 10.24 12.98 -22.24 -5.69 0.0 28.73 0.0 -17.78 -3.71 4.9 17.75 4.7 -2.65 4.46 1.15 -0.8 7.17 1.99 -1.25 -0.48 -0.43 0.12 -0.49 -0.43 0.12 -9.12 -7.74 2.69 -5.39 -3.61 12.65 16.67 -20.5 56.57 23.95 -11.6 7.56 6.48 4.03 -3.8 2.46 -3.77 -5.13 -5.11 23.51 -85.2 6.46 -5.84 3.25 -5.52 -3.68 -11.31
77.87 93.33 -22.84 -67.63 -0.91 1.65 7.7 -0.79 -7.03 -0.0 55.37 -0.0 -5.56 8.22 7.35 13.13 -21.76 -5.68 -0.0 28.7 -0.0 -17.75 -4.28 5.07 16.49 4.34 -2.87 4.14 1.07 -0.84 6.67 1.86 -1.32 -0.37 -0.44 0.12 -0.37 -0.44 0.12 -7.03 -7.85 2.72 -3.69 -2.94 12.74 16.69 -19.84 57.0 22.7 -11.13 8.2 5.61 3.96 -4.34 2.83 -4.23 -5.32 -4.58 22.87 -84.89 6.09 -6.66 2.92 -3.72 -3.95 -11.41
77.16 93.47 -22.39 -67.83 -0.76 1.67 7.44 -1.91 -7.16 0.0 56.75 -0.0 -7.08 7.3 6.27 13.14 -21.29 -5.67 0.0 28.66 0.0 -17.59 -4.83 5.21 16.37 4.3 -2.89 4.11 1.06 -0.84 6.63 1.84 -1.33 -0.35 -0.46 0.12 -0.35 -0.46 0.12 -6.64 -8.24 2.67 -3.86 -2.7 12.69 16.73 -19.07 57.48 21.45 -10.62 8.8 5.85 4.56 -4.07 2.55 -4.51 -5.48 -5.5 21.72 -84.84 5.79 -7.56 2.59 -1.88 -4.29 -11.54
76.5 93.6 -21.96 -68.39 -0.54 1.73 7.57 -3.23 -7.38 -0.0 58.03 -0.0 -8.16 6.33 5.32 13.37 -20.88 -5.7 -0.0 28.59 0.0 -17.25 -5.35 5.28 16.45 4.24 -2.95 4.13 1.05 -0.85 6.66 1.82 -1.35 -0.33 -0.46 0.12 -0.33 -0.46 0.12 -6.27 -8.34 2.58 -4.04 -2.56 12.62 16.78 -18.14 58.03 20.21 -10.1 9.3 0.61 6.23 -2.65 2.25 -4.78 -5.63 -6.49 20.48 -84.77 5.55 -8.53 2.27 -1.82 -4.85 -10.77
75.88 93.71 -21.53 -68.52 -0.52 1.7 7.25 -4.27 -7.46 -0.0 58.97 -0.0 -8.84 5.25 4.3 12.96 -20.39 -5.6 -0.0 28.52 -0.0 -16.75 -5.83 5.3 16.28 4.28 -2.9 4.09 1.05 -0.84 6.6 1.83 -1.33 -0.31 -0.47 0.11 -0.31 -0.47 0.11 -5.9 -8.44 2.49 -4.23 -2.49 12.52 16.8 -17.06 58.64 19.12 -9.52 9.76 0.3 6.69 -2.6 1.92 -5.02 -5.76 -7.51 19.17 -84.65 5.32 -9.53 1.95 -1.68 -5.24 -10.08
75.28 93.83 -21.11 -68.62 -0.51 1.64 6.93 -5.29 -7.43 -0.0 59.71 -0.0 -9.15 4.02 3.29 12.47 -19.91 -5.48 0.0 28.43 0.0 -16.17 -6.27 5.32 16.07 4.32 -2.82 4.03 1.06 -0.82 6.51 1.84 -1.3 -0.28 -0.49 0.11 -0.28 -0.49 0.11 -5.46 -8.8 2.41 -4.44 -2.45 12.39 17.44 -17.07 58.69 16.63 -8.95 10.64 0.04 7.18 -2.57 1.62 -5.27 -5.88 -8.5 17.84 -84.45 5.08 -10.5 1.62 0.28 -5.65 -10.25
74.66 93.95 -20.69 -68.67 -0.5 1.53 6.7 -6.36 -7.32 -0.0 60.37 -0.0 -9.04 2.94 2.67 11.98 -19.39 -5.31 -0.0 28.29 -0.0 -15.68 -6.72 5.3 15.85 4.36 -2.72 3.98 1.07 -0.8 6.43 1.84 -1.26 -0.26 -0.5 0.11 -0.26 -0.5 0.11 -5.07 -9.1 2.35 -4.65 -2.46 12.28 18.03 -17.04 58.74 14.38 -8.28 11.54 -0.49 7.49 -2.7 1.27 -5.52 -6.0 -9.4 16.52 -84.14 4.8 -11.37 1.28 2.29 -6.11 -10.42
74.07 94.07 -20.32 -68.69 -0.52 1.4 6.62 -7.42 -7.08 -0.0 60.82 -0.0 -8.82 1.97 2.37 11.79 -18.86 -5.14 0.0 28.12 0.0 -15.52 -7.1 5.33 15.87 4.34 -2.64 3.98 1.06 -0.78 6.44 1.83 -1.22 -0.26 -0.52 0.11 -0.26 -0.52 0.11 -5.08 -9.39 2.47 -5.26 -2.36 12.28 18.63 -17.0 58.77 10.74 -8.12 12.01 0.31 8.55 -2.29 0.53 -5.71 -5.99 -8.63 16.66 -84.09 2.49 -10.69 1.88 -0.67 -6.19 -7.89
73.5 94.2 -19.97 -68.67 -0.54 1.24 6.68 -8.47 -6.74 -0.0 61.03 0.0 -8.54 1.18 2.36 11.64 -18.34 -4.93 -0.0 27.97 0.0 -15.46 -7.48 5.34 15.86 4.33 -2.54 3.98 1.06 -0.75 6.44 1.82 -1.18 -0.26 -0.52 0.12 -0.26 -0.52 0.12 -5.1 -9.39 2.53 -5.91 -2.28 12.3 19.27 -16.94 58.8 8.62 -7.43 12.87 -0.34 8.73 -2.59 -0.19 -5.95 -6.0 -7.87 16.83 -84.04 0.35 -9.92 2.41 -0.34 -6.64 -6.98
72.89 94.32 -19.6 -68.62 -0.58 1.06 6.76 -9.46 -6.25 0.0 61.13 0.0 -8.26 0.4 2.49 11.29 -17.79 -4.7 -0.0 27.79 -0.0 -15.23 -7.89 5.31 15.84 4.33 -2.44 3.98 1.06 -0.73 6.43 1.81 -1.14 -0.26 -0.52 0.12 -0.26 -0.52 0.12 -5.13 -9.34 2.59 -5.91 -2.28 12.3 18.67 -15.74 59.44 7.7 -6.96 13.13 -1.08 9.08 -2.78 -0.19 -5.95 -6.0 -9.44 15.43 -83.67 -0.15 -10.37 2.11 -3.9 -6.15 -3.72
72.25 94.45 -19.21 -68.54 -0.62 0.9 6.96 -10.51 -5.86 0.0 60.97 0.0 -7.9 -0.12 2.82 11.03 -17.19 -4.49 0.0 27.59 0.0 -15.12 -8.31 5.3 15.8 4.32 -2.34 3.97 1.05 -0.7 6.42 1.8 -1.1 -0.26 -0.51 0.12 -0.26 -0.51 0.12 -5.17 -9.27 2.65 -5.91 -2.28 12.29 17.97 -14.48 60.15 6.77 -6.55 13.3 -1.38 9.44 -2.99 -0.19 -5.95 -6.01 -10.93 14.06 -83.18 -0.75 -10.68 1.79 -3.82 -6.26 -2.61
